<mxfile host="app.diagrams.net" modified="2024-09-17T16:18:45.024Z" agent="Mozilla/5.0 (Windows NT 10.0; Win64; x64) AppleWebKit/537.36 (KHTML, like Gecko) Chrome/128.0.0.0 Safari/537.36" etag="_10k9sgVSoBoq5d8kavp" version="24.2.5" type="device">
  <diagram name="Page-1" id="CBX8DuRWFHSd9k9iUQyx">
    <mxGraphModel dx="1434" dy="772" grid="1" gridSize="10" guides="1" tooltips="1" connect="1" arrows="1" fold="1" page="1" pageScale="1" pageWidth="850" pageHeight="1100" math="0" shadow="0">
      <root>
        <mxCell id="0" />
        <mxCell id="1" parent="0" />
        <mxCell id="UTreJQpXNQQC-au90p6x-26" style="edgeStyle=orthogonalEdgeStyle;rounded=0;orthogonalLoop=1;jettySize=auto;html=1;entryX=0.5;entryY=0;entryDx=0;entryDy=0;" edge="1" parent="1" source="UTreJQpXNQQC-au90p6x-1" target="UTreJQpXNQQC-au90p6x-12">
          <mxGeometry relative="1" as="geometry" />
        </mxCell>
        <mxCell id="UTreJQpXNQQC-au90p6x-1" value="Video Loop Detection" style="rounded=0;whiteSpace=wrap;html=1;" vertex="1" parent="1">
          <mxGeometry x="240" y="240" width="120" height="60" as="geometry" />
        </mxCell>
        <mxCell id="UTreJQpXNQQC-au90p6x-23" style="edgeStyle=orthogonalEdgeStyle;rounded=0;orthogonalLoop=1;jettySize=auto;html=1;" edge="1" parent="1" source="UTreJQpXNQQC-au90p6x-2" target="UTreJQpXNQQC-au90p6x-12">
          <mxGeometry relative="1" as="geometry" />
        </mxCell>
        <mxCell id="UTreJQpXNQQC-au90p6x-2" value="Lip Movement Tracking" style="rounded=0;whiteSpace=wrap;html=1;" vertex="1" parent="1">
          <mxGeometry x="100" y="240" width="120" height="60" as="geometry" />
        </mxCell>
        <mxCell id="UTreJQpXNQQC-au90p6x-25" style="edgeStyle=orthogonalEdgeStyle;rounded=0;orthogonalLoop=1;jettySize=auto;html=1;entryX=0.5;entryY=0;entryDx=0;entryDy=0;" edge="1" parent="1" source="UTreJQpXNQQC-au90p6x-4" target="UTreJQpXNQQC-au90p6x-12">
          <mxGeometry relative="1" as="geometry" />
        </mxCell>
        <mxCell id="UTreJQpXNQQC-au90p6x-4" value="Eyeball Tracking" style="rounded=0;whiteSpace=wrap;html=1;" vertex="1" parent="1">
          <mxGeometry x="380" y="240" width="120" height="60" as="geometry" />
        </mxCell>
        <mxCell id="UTreJQpXNQQC-au90p6x-27" style="edgeStyle=orthogonalEdgeStyle;rounded=0;orthogonalLoop=1;jettySize=auto;html=1;entryX=1;entryY=0.5;entryDx=0;entryDy=0;" edge="1" parent="1" source="UTreJQpXNQQC-au90p6x-6" target="UTreJQpXNQQC-au90p6x-12">
          <mxGeometry relative="1" as="geometry" />
        </mxCell>
        <mxCell id="UTreJQpXNQQC-au90p6x-6" value="Real-time captcha checker" style="rounded=0;whiteSpace=wrap;html=1;" vertex="1" parent="1">
          <mxGeometry x="600" y="270" width="120" height="60" as="geometry" />
        </mxCell>
        <mxCell id="UTreJQpXNQQC-au90p6x-13" style="edgeStyle=orthogonalEdgeStyle;rounded=0;orthogonalLoop=1;jettySize=auto;html=1;entryX=0.5;entryY=0;entryDx=0;entryDy=0;" edge="1" parent="1" source="UTreJQpXNQQC-au90p6x-7" target="UTreJQpXNQQC-au90p6x-2">
          <mxGeometry relative="1" as="geometry" />
        </mxCell>
        <mxCell id="UTreJQpXNQQC-au90p6x-14" style="edgeStyle=orthogonalEdgeStyle;rounded=0;orthogonalLoop=1;jettySize=auto;html=1;exitX=0.5;exitY=1;exitDx=0;exitDy=0;entryX=0.5;entryY=0;entryDx=0;entryDy=0;" edge="1" parent="1" source="UTreJQpXNQQC-au90p6x-7" target="UTreJQpXNQQC-au90p6x-1">
          <mxGeometry relative="1" as="geometry" />
        </mxCell>
        <mxCell id="UTreJQpXNQQC-au90p6x-15" style="edgeStyle=orthogonalEdgeStyle;rounded=0;orthogonalLoop=1;jettySize=auto;html=1;entryX=0.5;entryY=0;entryDx=0;entryDy=0;" edge="1" parent="1" source="UTreJQpXNQQC-au90p6x-7" target="UTreJQpXNQQC-au90p6x-4">
          <mxGeometry relative="1" as="geometry" />
        </mxCell>
        <mxCell id="UTreJQpXNQQC-au90p6x-20" style="edgeStyle=orthogonalEdgeStyle;rounded=0;orthogonalLoop=1;jettySize=auto;html=1;entryX=0;entryY=0.5;entryDx=0;entryDy=0;" edge="1" parent="1" source="UTreJQpXNQQC-au90p6x-7" target="UTreJQpXNQQC-au90p6x-21">
          <mxGeometry relative="1" as="geometry">
            <mxPoint x="600" y="155" as="targetPoint" />
            <Array as="points">
              <mxPoint x="275" y="160" />
            </Array>
          </mxGeometry>
        </mxCell>
        <mxCell id="UTreJQpXNQQC-au90p6x-7" value="Video Input&lt;div&gt;(from web camera)&lt;/div&gt;" style="rounded=1;whiteSpace=wrap;html=1;" vertex="1" parent="1">
          <mxGeometry x="100" y="20" width="490" height="60" as="geometry" />
        </mxCell>
        <mxCell id="UTreJQpXNQQC-au90p6x-28" style="edgeStyle=orthogonalEdgeStyle;rounded=0;orthogonalLoop=1;jettySize=auto;html=1;entryX=0.5;entryY=0;entryDx=0;entryDy=0;" edge="1" parent="1" source="UTreJQpXNQQC-au90p6x-11" target="UTreJQpXNQQC-au90p6x-21">
          <mxGeometry relative="1" as="geometry" />
        </mxCell>
        <mxCell id="UTreJQpXNQQC-au90p6x-11" value="Audio Input&lt;div&gt;(from microphone)&lt;/div&gt;" style="rounded=1;whiteSpace=wrap;html=1;" vertex="1" parent="1">
          <mxGeometry x="600" y="20" width="120" height="60" as="geometry" />
        </mxCell>
        <mxCell id="UTreJQpXNQQC-au90p6x-12" value="Integrity Score Calculation" style="rounded=1;whiteSpace=wrap;html=1;" vertex="1" parent="1">
          <mxGeometry x="100" y="410" width="440" height="60" as="geometry" />
        </mxCell>
        <mxCell id="UTreJQpXNQQC-au90p6x-22" style="edgeStyle=orthogonalEdgeStyle;rounded=0;orthogonalLoop=1;jettySize=auto;html=1;entryX=0.5;entryY=0;entryDx=0;entryDy=0;" edge="1" parent="1" source="UTreJQpXNQQC-au90p6x-21" target="UTreJQpXNQQC-au90p6x-6">
          <mxGeometry relative="1" as="geometry" />
        </mxCell>
        <mxCell id="UTreJQpXNQQC-au90p6x-21" value="Estimation of Number of people in close proximity" style="rounded=0;whiteSpace=wrap;html=1;" vertex="1" parent="1">
          <mxGeometry x="600" y="110" width="120" height="100" as="geometry" />
        </mxCell>
      </root>
    </mxGraphModel>
  </diagram>
</mxfile>
